<svg width="118" height="38" viewBox="0 0 118 38" fill="none" xmlns="http://www.w3.org/2000/svg">
<path d="M43.4354 2.65797C43.2687 1.33114 41.9841 0.386578 40.615 0.511038L35.7633 1.09111C34.5609 1.2578 33.6475 2.25125 33.6075 3.45584C33.3163 9.30323 28.8802 14.3194 22.8684 15.0261C16.8565 15.7729 11.2981 11.9991 9.6401 6.40065C9.30895 5.24051 8.18881 4.49375 6.98644 4.61821L2.13474 5.19828C0.805685 5.36274 -0.147765 6.60734 0.0189221 7.93417C0.0255896 8.02085 0.054482 8.15864 0.0744845 8.25199C2.77037 18.8266 12.9983 26.0564 24.113 24.6873C35.2255 23.3183 43.3954 13.8171 43.4376 2.95356C43.4398 2.80021 43.4398 2.76465 43.4354 2.65797Z" fill="white"/>
<path d="M15.6942 29.828C15.6942 32.5239 13.4961 34.7219 10.8002 34.7219C8.10436 34.7219 5.90631 32.5239 5.90631 29.828C5.90631 27.1321 8.10436 24.9341 10.8002 24.9341C13.5384 24.9363 15.6942 27.1321 15.6942 29.828Z" fill="white"/>
<path d="M39.3304 31.2392C39.3304 34.6818 36.5523 37.5 33.0696 37.5C29.627 37.5 26.8088 34.7218 26.8088 31.2392C26.8088 27.7965 29.587 24.9784 33.0696 24.9784C36.5523 24.9784 39.3304 27.7965 39.3304 31.2392Z" fill="white"/>
<path d="M55.854 26.0164H62.8282C63.2772 26.0164 63.4816 26.2609 63.4816 26.6698V28.2189C63.4816 28.6678 63.2372 28.8723 62.8282 28.8723H52.1825C51.7335 28.8723 51.5291 28.6278 51.5291 28.2189V26.5876C51.5291 26.2609 51.6513 25.9764 51.8558 25.7319L58.5855 19.0822C59.8501 17.8176 60.299 17.002 60.299 15.9418C60.299 14.3505 59.1967 13.4126 57.4031 13.4126C56.0563 13.4126 54.9561 14.066 54.0182 15.3306C53.7738 15.6974 53.4471 15.7396 53.0803 15.4929L51.8558 14.4728C51.5291 14.2283 51.489 13.9016 51.6935 13.5349C53.0804 11.5368 55.0384 10.5167 57.5676 10.5167C61.2791 10.5167 63.6039 12.597 63.6039 15.9418C63.6039 17.9399 62.8704 19.4489 61.0347 21.1225L55.854 25.8942V26.0164Z" fill="white"/>
<path d="M70.0891 26.0164H77.0633C77.5123 26.0164 77.7167 26.2609 77.7167 26.6698V28.2189C77.7167 28.6678 77.4723 28.8723 77.0633 28.8723H66.4176C65.9686 28.8723 65.7642 28.6278 65.7642 28.2189V26.5876C65.7642 26.2609 65.8864 25.9764 66.0909 25.7319L72.8206 19.0822C74.0852 17.8176 74.5341 17.002 74.5341 15.9418C74.5341 14.3505 73.4318 13.4126 71.6382 13.4126C70.2914 13.4126 69.1912 14.066 68.2534 15.3306C68.0089 15.6974 67.6822 15.7396 67.3155 15.4929L66.0909 14.4728C65.7642 14.2283 65.7242 13.9016 65.9286 13.5349C67.3155 11.5368 69.2735 10.5167 71.8027 10.5167C75.5142 10.5167 77.839 12.597 77.839 15.9418C77.839 17.9399 77.1055 19.4489 75.2698 21.1225L70.0891 25.8942V26.0164Z" fill="white"/>
<path d="M79.7548 16.7575C79.7548 12.7592 81.9973 10.5567 86.0355 10.5567C90.0738 10.5567 92.3163 12.7592 92.3163 16.7575V23.0383C92.3163 27.0365 90.0738 29.239 86.0355 29.239C81.9973 29.239 79.7548 27.0365 79.7548 23.0383V16.7575ZM83.0596 22.9583C83.0596 25.243 84.0797 26.3431 86.0778 26.3431C88.0758 26.3431 89.0959 25.2008 89.0959 22.9583V16.7997C89.0959 14.5572 88.0758 13.4149 86.0778 13.4149C84.0797 13.4149 83.0596 14.5572 83.0596 16.7997V22.9583Z" fill="white"/>
<path d="M94.1143 27.241C94.1143 26.0986 94.9699 25.283 96.1123 25.283C97.2546 25.283 98.1103 26.0986 98.1103 27.241C98.1103 28.3834 97.2546 29.239 96.1123 29.239C94.9299 29.239 94.1143 28.4234 94.1143 27.241Z" fill="white"/>
<path d="M100.926 28.9123C100.477 28.9123 100.273 28.6678 100.273 28.2589V9.41437C100.273 8.96543 100.517 8.76096 100.926 8.76096H102.762C103.211 8.76096 103.415 9.00543 103.415 9.41437V28.2589C103.415 28.7078 103.171 28.9123 102.762 28.9123H100.926Z" fill="white"/>
<path d="M116.833 14.555C117.364 14.555 117.526 14.7995 117.364 15.2884L113.121 28.3411C112.999 28.7078 112.754 28.8723 112.388 28.8723H110.145C109.778 28.8723 109.492 28.7101 109.412 28.3411L105.129 15.2884C104.967 14.7995 105.169 14.555 105.7 14.555H107.698C108.065 14.555 108.352 14.7172 108.432 15.0862L111.288 24.9563H111.328L114.223 15.0862C114.346 14.7195 114.59 14.555 114.957 14.555H116.833Z" fill="white"/>
</svg>
