<svg width="107" height="24" viewBox="0 0 107 24" fill="none" xmlns="http://www.w3.org/2000/svg">
<path d="M29.3706 1.92084C29.2664 1.08223 28.4587 0.465608 27.5729 0.564268L24.3424 0.958908C23.5348 1.05757 22.9356 1.69886 22.9096 2.43881C22.7272 6.08923 19.7833 9.19702 15.8233 9.66566C11.8373 10.1343 8.18991 7.76645 7.06965 4.26402C6.86123 3.54873 6.10571 3.05543 5.29809 3.15409L2.09363 3.52407C1.1818 3.64739 0.556536 4.38735 0.660746 5.25062C0.660746 5.32462 0.686799 5.37395 0.686799 5.42328C0.686799 5.44794 0.686799 5.44794 0.712851 5.47261C2.51047 12.0828 9.25806 16.5719 16.5788 15.7333C23.8995 14.8946 29.3185 8.97504 29.3445 2.16749C29.3445 2.14283 29.3445 2.14283 29.3445 2.11816C29.3706 2.04417 29.3706 1.97017 29.3706 1.92084Z" fill="#999999"/>
<path d="M36.9 15.5871V19.1882C36.9 19.4595 36.7437 19.6075 36.4572 19.6075H35.2588C34.9722 19.6075 34.8159 19.4595 34.8159 19.1882V7.37362C34.8159 7.10231 34.9722 6.95432 35.2588 6.95432H36.4572C36.7437 6.95432 36.9 7.10231 36.9 7.37362V14.6005L39.7396 10.8761C39.8699 10.7034 40.0522 10.6294 40.2606 10.6294H41.6935C42.0582 10.6294 42.1624 10.8761 41.954 11.1227L38.8278 14.9704L42.1624 19.0895C42.3969 19.3608 42.2666 19.5828 41.9019 19.5828H40.3649C40.1304 19.5828 39.9741 19.4841 39.8438 19.3362L36.9 15.5871Z" fill="#999999"/>
<path d="M50.0056 13.9839V16.3764C50.0056 18.5962 48.677 19.8048 46.2803 19.8048C43.9617 19.8048 42.7373 18.8182 42.7373 16.9437C42.7373 15.1925 43.9617 14.2059 46.1761 14.2059H47.9476V14.1319C47.9476 12.7013 47.3484 12.1093 46.0458 12.1093C45.4466 12.1093 44.8996 12.3066 44.3785 12.6766C44.118 12.8493 43.9357 12.8246 43.7794 12.578L43.2583 11.8133C43.076 11.5667 43.1281 11.394 43.3625 11.2461C44.1962 10.6788 45.1601 10.4074 46.2542 10.4074C48.651 10.4074 50.0056 11.616 50.0056 13.9839ZM47.9215 16.2284V15.6858H46.4366C45.3945 15.6858 44.7954 16.1297 44.7954 16.919C44.7954 17.7329 45.2903 18.1276 46.2542 18.1276C47.3744 18.1276 47.9215 17.4863 47.9215 16.2284Z" fill="#999999"/>
<path d="M58.4195 16.4998C58.4195 18.6456 57.169 19.8296 54.8505 19.8296C52.5319 19.8296 51.2554 18.6456 51.2554 16.4998V11.0488C51.2554 10.7775 51.4117 10.6295 51.6982 10.6295H52.8966C53.1832 10.6295 53.3395 10.7775 53.3395 11.0488V16.4011C53.3395 17.5357 53.8605 18.103 54.8765 18.103C55.8925 18.103 56.4135 17.5357 56.4135 16.4011V11.0488C56.4135 10.7775 56.5698 10.6295 56.8564 10.6295H57.9766C58.2632 10.6295 58.4195 10.7775 58.4195 11.0488V16.4998Z" fill="#999999"/>
<path d="M67.2772 16.401C67.2772 18.6209 66.1049 19.8295 63.9426 19.8295C63.0829 19.8295 62.4316 19.5828 61.9888 19.1142H61.9367V22.074C61.9367 22.3453 61.7803 22.4933 61.4938 22.4933H60.2954C60.0088 22.4933 59.8525 22.3453 59.8525 22.074V13.8359C59.8525 11.616 61.1812 10.4074 63.5518 10.4074C65.9225 10.4074 67.2772 11.616 67.2772 13.8359V16.401ZM65.1931 14.0085C65.1931 12.7506 64.646 12.1093 63.5518 12.1093C62.4577 12.1093 61.9367 12.7506 61.9367 14.0085V16.253C61.9367 17.511 62.4577 18.1276 63.5518 18.1276C64.646 18.1276 65.1931 17.4863 65.1931 16.253V14.0085Z" fill="#999999"/>
<path d="M71.4975 17.8071H76.1086C76.3951 17.8071 76.5514 17.9551 76.5514 18.2264V19.1883C76.5514 19.4597 76.3951 19.6076 76.1086 19.6076H69.0747C68.7881 19.6076 68.6318 19.4597 68.6318 19.1883V18.1771C68.6318 17.9798 68.71 17.8071 68.8663 17.6591L73.295 13.4907C74.1287 12.7014 74.4152 12.1835 74.4152 11.5175C74.4152 10.5309 73.6858 9.93897 72.4874 9.93897C71.6017 9.93897 70.8723 10.3336 70.247 11.1476C70.0647 11.3942 69.8562 11.3942 69.6478 11.2462L68.8402 10.6049C68.6318 10.4323 68.5797 10.2349 68.736 10.0376C69.6478 8.77971 70.9504 8.16309 72.5916 8.16309C75.0405 8.16309 76.6036 9.47033 76.6036 11.5669C76.6036 12.8248 76.1086 13.762 74.9102 14.8226L71.4975 17.8071Z" fill="#999999"/>
<path d="M85.0454 15.3899H86.0353C86.3219 15.3899 86.4782 15.5379 86.4782 15.8092V16.7958C86.4782 17.0671 86.3219 17.2151 86.0353 17.2151H85.0454V19.213C85.0454 19.4843 84.889 19.6323 84.6025 19.6323H83.2999C83.0133 19.6323 82.857 19.4843 82.857 19.213V17.1904H77.751C77.4644 17.1904 77.3081 17.0424 77.3081 16.7711V15.5872C77.3081 15.3899 77.3602 15.2172 77.4905 15.0692L82.6226 8.58234C82.7528 8.40969 82.9352 8.33569 83.1436 8.33569H84.6025C84.889 8.33569 85.0454 8.48368 85.0454 8.755V15.3899ZM82.8831 11.2708H82.831L79.6527 15.4146H82.8831V11.2708Z" fill="#999999"/>
<path d="M87.2334 18.5716C87.2334 17.8563 87.7805 17.3384 88.562 17.3384C89.3175 17.3384 89.8906 17.8563 89.8906 18.5716C89.8906 19.2869 89.3175 19.8295 88.562 19.8295C87.7805 19.8049 87.2334 19.2869 87.2334 18.5716Z" fill="#999999"/>
<path d="M98.2543 15.3158C98.2543 15.5871 98.098 15.7351 97.8115 15.7351H93.0441V16.1051C93.0441 17.5356 93.6433 18.1276 95.024 18.1276C95.6492 18.1276 96.2223 17.9303 96.7434 17.511C97.0039 17.3136 97.1862 17.3383 97.3425 17.5603L97.8636 18.2756C98.0199 18.4729 97.9938 18.6702 97.7854 18.8429C97.0299 19.4842 96.066 19.8295 94.9458 19.8295C92.2886 19.8295 90.96 18.6456 90.96 16.253V13.8359C90.96 11.616 92.2625 10.4074 94.6072 10.4074C96.9518 10.4074 98.2543 11.616 98.2543 13.8359V15.3158ZM96.2744 14.2552V13.9839C96.2744 12.726 95.7534 12.1093 94.6853 12.1093C93.5911 12.1093 93.0701 12.7506 93.0701 13.9839V14.2552H96.2744Z" fill="#999999"/>
<path d="M106.591 15.3158C106.591 15.5871 106.434 15.7351 106.148 15.7351H101.38V16.1051C101.38 17.5356 101.98 18.1276 103.36 18.1276C103.986 18.1276 104.559 17.9303 105.08 17.511C105.34 17.3136 105.523 17.3383 105.679 17.5603L106.2 18.2756C106.356 18.4729 106.33 18.6702 106.122 18.8429C105.366 19.4842 104.402 19.8295 103.282 19.8295C100.625 19.8295 99.2964 18.6456 99.2964 16.253V13.8359C99.2964 11.616 100.599 10.4074 102.944 10.4074C105.288 10.4074 106.591 11.616 106.591 13.8359V15.3158ZM104.611 14.2552V13.9839C104.611 12.726 104.09 12.1093 103.022 12.1093C101.928 12.1093 101.407 12.7506 101.407 13.9839V14.2552H104.611Z" fill="#999999"/>
<path d="M26.5574 19.6569C26.5574 21.8027 24.7078 23.554 22.4413 23.554C20.1488 23.554 18.3252 21.8027 18.3252 19.6569C18.3252 17.511 20.1748 15.7598 22.4413 15.7598C24.7078 15.7351 26.5574 17.4864 26.5574 19.6569Z" fill="#999999"/>
<path d="M10.9266 18.7934C10.9266 20.4953 9.46768 21.8519 7.69619 21.8519C5.9247 21.8519 4.46582 20.4706 4.46582 18.7934C4.46582 17.1162 5.9247 15.735 7.69619 15.735C9.49373 15.735 10.9266 17.0915 10.9266 18.7934Z" fill="#999999"/>
</svg>
