<svg width="78" height="24" viewBox="0 0 78 24" fill="none" xmlns="http://www.w3.org/2000/svg">
<path d="M36.9636 17.7744H41.5755C41.8671 17.7744 42.0261 17.9259 42.0261 18.2035V19.1878C42.0261 19.4654 41.8671 19.6168 41.5755 19.6168H34.5517C34.2601 19.6168 34.1011 19.4654 34.1011 19.1878V18.1783C34.1011 17.9763 34.1806 17.7997 34.3396 17.6482L38.7925 13.4587C39.6407 12.651 39.9057 12.1463 39.9057 11.4901C39.9057 10.4805 39.1901 9.90005 37.9708 9.90005C37.0962 9.90005 36.354 10.3039 35.7179 11.1115C35.5324 11.3386 35.3468 11.3639 35.1083 11.2124L34.2866 10.5563C34.0746 10.3796 34.0481 10.2029 34.1806 9.97577C35.0818 8.71385 36.3805 8.08289 38.0504 8.08289C40.5153 8.08289 42.0526 9.39528 42.0526 11.4901C42.0526 12.752 41.549 13.6858 40.3563 14.7458L36.9636 17.724V17.7744Z" fill="#999999"/>
<path d="M46.3738 17.7744H50.9857C51.2772 17.7744 51.4363 17.9258 51.4363 18.2034V19.1877C51.4363 19.4654 51.2772 19.6168 50.9857 19.6168H43.9618C43.6703 19.6168 43.5113 19.4654 43.5113 19.1877V18.1782C43.5113 17.9763 43.5908 17.7996 43.7498 17.6482L48.2027 13.4586C49.0508 12.651 49.3159 12.1462 49.3159 11.49C49.3159 10.4805 48.6002 9.89999 47.381 9.89999C46.5063 9.89999 45.7642 10.3038 45.1281 11.1114C44.9425 11.3386 44.757 11.3638 44.5184 11.2124L43.6968 10.5057C43.4847 10.329 43.4582 10.1524 43.5908 9.92523C44.4919 8.66331 45.7907 8.03235 47.4605 8.03235C49.9255 8.03235 51.4628 9.34475 51.4628 11.4395C51.4628 12.7015 50.9592 13.6353 49.7665 14.6953L46.3738 17.7239V17.7744Z" fill="#999999"/>
<path d="M52.7612 11.9443C52.7612 9.42046 54.2455 8.03235 56.9225 8.03235C59.5995 8.03235 61.0838 9.42046 61.0838 11.9443V15.9067C61.0838 18.4306 59.5995 19.8187 56.9225 19.8187C54.2455 19.8187 52.7612 18.4306 52.7612 15.9067V11.9443ZM54.9346 15.8563C54.9346 17.2948 55.5973 18.0015 56.9225 18.0015C58.2478 18.0015 58.9104 17.2948 58.9104 15.8563V11.9695C58.9104 10.5562 58.2478 9.84951 56.9225 9.84951C55.5973 9.84951 54.9346 10.5562 54.9346 11.9695V15.8563Z" fill="#999999"/>
<path d="M62.2529 18.5566C62.2529 17.85 62.8095 17.3199 63.5782 17.3199C64.3203 17.3199 64.9034 17.85 64.9034 18.5566C64.9034 19.2885 64.3203 19.8185 63.5782 19.8185C62.783 19.7933 62.2529 19.2885 62.2529 18.5566Z" fill="#999999"/>
<path d="M66.7572 19.5915C66.4657 19.5915 66.3066 19.4401 66.3066 19.1624V7.30039C66.3066 7.02277 66.4657 6.87134 66.7572 6.87134H67.95C68.2415 6.87134 68.4005 7.02277 68.4005 7.30039V19.1624C68.4005 19.4401 68.2415 19.5915 67.95 19.5915H66.7572Z" fill="#999999"/>
<path d="M77.253 10.5561C77.5976 10.5561 77.7036 10.7328 77.6241 11.0357L74.8145 19.2381C74.735 19.4653 74.576 19.5915 74.311 19.5915H72.8532C72.6146 19.5915 72.4291 19.4905 72.3496 19.2381L69.54 11.0357C69.434 10.7328 69.5665 10.5561 69.9111 10.5561H71.2364C71.4749 10.5561 71.6604 10.6571 71.74 10.9095L73.6218 17.1181H73.6483L75.5567 10.9095C75.6362 10.6823 75.7952 10.5561 76.0603 10.5561H77.253Z" fill="#999999"/>
<path d="M28.7731 1.89816C28.6671 1.06529 27.8719 0.484811 26.9707 0.560526L23.7899 0.939102C22.9948 1.04006 22.4116 1.67102 22.3851 2.40293C22.1731 6.08774 19.2309 9.19206 15.2814 9.67159C11.332 10.1259 7.70066 7.77871 6.5874 4.24533C6.37535 3.53866 5.63317 3.05913 4.83798 3.16008L1.65723 3.53866C0.75602 3.63961 0.11987 4.39676 0.225895 5.22963C0.225895 5.28011 0.252402 5.35582 0.252402 5.4063C0.252402 5.43154 0.252402 5.43154 0.252402 5.45678C2.02832 12.0692 8.7344 16.5617 16.0236 15.7288C23.3128 14.8707 28.6936 8.96492 28.7201 2.15055C28.7201 2.12531 28.7201 2.12531 28.7201 2.10007C28.7731 2.02435 28.7731 1.97388 28.7731 1.89816Z" fill="#999999"/>
<path d="M25.991 19.642C25.991 21.7872 24.1621 23.5539 21.8827 23.5539C19.6033 23.5539 17.7744 21.8125 17.7744 19.642C17.7744 17.4715 19.6033 15.73 21.8827 15.73C24.1356 15.73 25.991 17.4967 25.991 19.642Z" fill="#999999"/>
<path d="M10.4299 18.7839C10.4299 20.4748 8.99858 21.8377 7.22274 21.8377C5.4469 21.8377 4.01562 20.4748 4.01562 18.7839C4.01562 17.0929 5.4469 15.73 7.22274 15.73C8.99858 15.73 10.4299 17.0929 10.4299 18.7839Z" fill="#999999"/>
</svg>
