<svg width="130" height="22" viewBox="0 0 130 22" fill="none" xmlns="http://www.w3.org/2000/svg">
<path d="M13.3121 0.553986V15.8517H10.3046V8.97047H3.76917V15.8517H0.761719V0.553986H3.76917V6.39343H10.3046V0.553986H13.3121Z" fill="#999999"/>
<path d="M41.7101 9.10752V15.8517H38.7894V9.62841C38.7894 8.01091 37.8351 7.05138 36.2446 7.05138C34.4806 7.05138 33.3239 7.84642 33.3239 9.76549V15.8517H30.4321V4.91299H33.3239V5.87252H33.3528C33.3528 5.87252 34.3939 4.69366 36.9965 4.69366C40.0328 4.69366 41.7101 6.36599 41.7101 9.10752Z" fill="#999999"/>
<path d="M43.2148 11.575H46.1645C46.1934 13.0006 47.4079 13.9327 49.2298 13.9327C50.6756 13.9327 51.6878 13.3296 51.6878 12.3975C51.6878 11.4928 50.8202 11.3283 50.2997 11.246L47.6104 10.9445C46.1645 10.78 44.1981 10.2042 44.1981 8.12068C44.1981 6.06454 45.991 4.72119 48.9117 4.72119C51.8034 4.72119 53.5385 5.84522 53.8277 7.87394H50.907C50.6756 7.16115 49.9527 6.74992 48.9117 6.74992C47.8128 6.74992 47.032 7.21598 47.032 7.98361C47.032 8.77865 47.8706 8.97055 48.3911 9.02538L51.0516 9.32695C52.5553 9.51886 54.6085 10.122 54.6085 12.2878C54.6085 14.5907 52.4396 16.0985 49.2298 16.0985C45.7307 16.0711 43.2727 14.2891 43.2148 11.575Z" fill="#999999"/>
<path d="M20.8346 13.631C19.273 13.2746 18.232 12.0409 18.232 10.396C18.232 8.77849 19.273 7.51739 20.8346 7.161V4.72104C17.5958 4.99519 15.2534 7.32549 15.2534 10.396C15.2534 13.4939 17.5958 15.8242 20.8346 16.0435V13.631Z" fill="#999999"/>
<path d="M28.0345 13.9056C28.0345 12.2333 28.0345 4.94081 28.0345 4.94081H25.1427V5.90034H25.0849C25.0849 5.90034 24.3041 5.13271 22.6558 4.83115V7.18886C24.2173 7.54526 25.2584 8.77894 25.2584 10.4239C25.2584 12.0414 24.2173 13.3025 22.6558 13.6589V15.9617C24.1595 15.6328 25.0849 14.92 25.0849 14.92H25.1427C25.1427 14.92 25.1427 15.057 25.2295 15.8795C25.403 15.8795 28.1502 15.8795 28.1502 15.8795C28.1502 15.8795 28.0345 15.5779 28.0345 13.9056Z" fill="#999999"/>
<path d="M61.2606 13.6036C59.728 13.2472 58.6869 12.0135 58.6869 10.396C58.6869 8.77849 59.728 7.54481 61.2606 7.161V4.72104C58.0507 4.99519 55.7373 7.32549 55.7373 10.396C55.7373 13.4939 58.0507 15.8242 61.2606 16.0435V13.6036Z" fill="#999999"/>
<path d="M68.5513 13.9056C68.5513 12.2333 68.5513 4.94081 68.5513 4.94081H65.6595V5.90034H65.6017C65.6017 5.90034 64.792 5.1053 63.1147 4.83115V7.18886C64.6763 7.54526 65.7463 8.77894 65.7463 10.4239C65.7463 12.0688 64.6763 13.3299 63.1147 13.6589V15.9617C64.6185 15.6602 65.6017 14.8925 65.6017 14.8925H65.6595C65.6595 14.8925 65.6595 15.0296 65.7463 15.8521C65.9198 15.8521 68.667 15.8521 68.667 15.8521C68.667 15.8521 68.5513 15.5779 68.5513 13.9056Z" fill="#999999"/>
<path d="M73.9569 14.8921H73.8991V21.554H71.0073V4.9129H73.8991V5.87244H73.9569V7.98341L73.1472 10.2315L73.9569 11.9312V14.8921Z" fill="#999999"/>
<path d="M101.112 4.69366V7.02396C103.137 7.02396 104.611 8.44955 104.611 10.396C104.611 12.3425 103.137 13.7407 101.112 13.7407V16.071C104.843 16.071 107.503 13.7133 107.503 10.396C107.503 7.07879 104.843 4.69366 101.112 4.69366Z" fill="#999999"/>
<path d="M77.6004 16.071V13.7407C75.5762 13.7407 73.7544 12.6441 73.7544 10.3686C73.7544 8.09315 75.5473 6.99654 77.6004 6.99654V4.69366C73.87 4.69366 72.3374 7.05137 72.3374 10.3686C72.3374 13.7133 73.87 16.071 77.6004 16.071Z" fill="#999999"/>
<path d="M108.804 11.575H111.753C111.782 13.0006 112.997 13.9327 114.819 13.9327C116.264 13.9327 117.277 13.3296 117.277 12.3975C117.277 11.4928 116.409 11.3283 115.889 11.246L113.199 10.9445C111.753 10.78 109.787 10.2042 109.787 8.12068C109.787 6.06454 111.58 4.72119 114.501 4.72119C117.392 4.72119 119.127 5.84522 119.417 7.87394H116.496C116.265 7.16115 115.542 6.74992 114.501 6.74992C113.402 6.74992 112.621 7.21598 112.621 7.98361C112.621 8.77865 113.459 8.97055 113.98 9.02538L116.64 9.32695C118.144 9.51886 120.197 10.122 120.197 12.2878C120.197 14.5907 118.028 16.0985 114.819 16.0985C111.348 16.0711 108.862 14.2891 108.804 11.575Z" fill="#999999"/>
<path d="M129.944 13.3569V15.6324C129.279 15.8791 128.064 16.071 127.023 16.071C124.334 16.071 122.888 14.5083 122.888 12.0958V7.18847H120.748V5.15974L121.5 5.10491C122.628 5.05008 123.119 4.50178 123.177 3.29551L123.264 1.76025H125.722V4.91301H129.539V7.18847H125.722V11.9313C125.722 13.1102 126.416 13.7133 127.833 13.7133C128.527 13.7133 129.394 13.5762 129.944 13.3569Z" fill="#999999"/>
<path d="M98.5948 4.69366H80.0874V16.071H98.5948V4.69366Z" fill="#999999"/>
</svg>
