<svg width="117" height="22" viewBox="0 0 117 22" fill="none" xmlns="http://www.w3.org/2000/svg">
<path d="M81.8519 1.36882C83.8258 1.4315 84.089 1.68225 84.089 3.50015V8.327H77.7066V3.50015C77.7066 1.68225 78.0027 1.4315 79.9437 1.36882V0.553894H71.686V1.36882C73.66 1.4315 73.9232 1.68225 73.9232 3.50015V14.1882C73.9232 16.0061 73.6929 16.2255 71.686 16.3195V17.1344H79.9437V16.3195C77.9369 16.2568 77.7066 16.0061 77.7066 14.1882V9.32998H84.089V14.1882C84.089 16.0061 83.9245 16.2255 81.8519 16.3195V17.1344H90.0767V16.3195C88.1027 16.2568 87.8395 16.0374 87.8395 14.1882V3.50015C87.8395 1.68225 88.1356 1.4315 90.0767 1.36882V0.553894H81.8519V1.36882Z" fill="#999999"/>
<path d="M114.853 15.4732V0.585237L109.326 0.553894V1.11807H110.412C110.872 1.11807 111.267 1.49419 111.267 1.93299V15.4732C111.267 16.0688 110.741 16.5702 110.116 16.5702H109.326V17.1344H116.761V16.5702H115.972C115.347 16.5702 114.853 16.0688 114.853 15.4732Z" fill="#999999"/>
<path d="M26.4476 6.1331C25.4606 5.56892 24.342 5.31818 23.1248 5.31818C21.9075 5.31818 20.8218 5.60026 19.8019 6.1331C18.815 6.66593 17.9925 7.41817 17.4332 8.35846C16.841 9.29876 16.5449 10.3331 16.5449 11.4301C16.5449 12.5584 16.841 13.5928 17.4332 14.5017C18.0254 15.442 18.815 16.1943 19.8348 16.7271C20.8547 17.2599 21.9404 17.542 23.1577 17.542C24.3749 17.542 25.4606 17.2599 26.4805 16.7271C27.5003 16.1943 28.2899 15.442 28.8821 14.5017C29.4743 13.5614 29.7704 12.5271 29.7704 11.4301C29.7704 10.3017 29.4743 9.26741 28.8821 8.35846C28.257 7.41817 27.4674 6.66593 26.4476 6.1331ZM25.2961 13.7181C24.7368 14.3137 24.013 14.5958 23.1248 14.5958C22.2694 14.5958 21.5456 14.2823 20.9863 13.6868C20.427 13.1226 20.1309 12.339 20.1309 11.4301C20.1309 10.5211 20.427 9.73756 20.9863 9.14204C21.5456 8.54652 22.2694 8.23309 23.1248 8.23309C23.9801 8.23309 24.7039 8.54652 25.2632 9.14204C25.8225 9.73756 26.1186 10.4898 26.1186 11.4301C26.1186 12.339 25.8554 13.1226 25.2961 13.7181Z" fill="#999999"/>
<path d="M102.188 1.14963H103.109L103.602 1.61977V16.1003L103.109 16.5705H102.188V17.1346H108.57V16.5705H107.649L107.155 16.1003V1.61977L107.649 1.14963H108.57V0.585449H102.188V1.14963Z" fill="#999999"/>
<path d="M101.197 9.64359C101.197 6.69733 98.7628 5.41226 95.9663 5.41226C92.7751 5.41226 90.8341 7.01076 90.4393 9.07941H94.0911C93.9595 8.07643 94.5517 7.38688 95.8676 7.38688C97.1836 7.38688 97.8745 8.17046 97.9403 9.70627V10.6779C97.052 10.4585 95.9005 10.3018 94.7162 10.3018C92.2487 10.3645 90.209 11.6495 90.209 13.9063C90.209 16.1003 91.7223 17.4167 94.0911 17.4167C95.5386 17.4167 96.723 16.8212 97.7429 15.8182H97.9403C97.9403 16.351 97.9074 16.7898 97.8416 17.1346H101.23C101.164 16.6645 101.164 15.9436 101.164 15.4421V9.64359H101.197ZM97.9403 13.9063C97.4468 14.5645 96.6572 15.254 95.407 15.254C94.2556 15.254 93.6305 14.5645 93.6305 13.7495C93.6305 12.8092 94.3214 12.1197 95.6373 12.057C96.4269 12.0257 97.1836 12.1197 97.9074 12.2764V13.9063H97.9403Z" fill="#999999"/>
<path d="M39.0481 5.41229C36.8438 5.41229 36.0213 6.2899 35.166 7.669H34.9686V0.585449H30.0337V2.93619H31.4155V14.7839H30.0337V17.1346H34.7383V15.0973H34.9357C35.8897 16.4764 36.8109 17.354 39.0481 17.354C41.2852 17.354 44.3777 15.254 44.3777 11.3675C44.3777 7.51229 41.2852 5.41229 39.0481 5.41229ZM39.9034 13.6555C39.3442 14.2511 38.6204 14.5645 37.765 14.5645C36.9096 14.5645 36.1858 14.2511 35.6265 13.6555C35.0673 13.06 34.7712 12.3078 34.7712 11.3675C34.7712 10.4585 35.0673 9.67496 35.6265 9.07944C36.1858 8.48392 36.9096 8.17049 37.765 8.17049C38.6204 8.17049 39.3442 8.48392 39.9034 9.07944C40.4627 9.67496 40.7588 10.4272 40.7588 11.3675C40.7259 12.3078 40.4627 13.06 39.9034 13.6555Z" fill="#999999"/>
<path d="M58.0648 8.35834C57.5384 7.44939 56.8146 6.72849 55.8934 6.19566C54.9723 5.66283 53.9853 5.41208 52.8996 5.41208C52.1429 5.41208 51.4521 5.53745 50.827 5.7882C50.2019 6.03894 49.7742 6.38372 49.511 6.82252V0.553894H44.1484L45.925 2.12105V15.5673L44.1484 17.1344H49.2478V15.9434C49.5439 16.3822 50.0374 16.727 50.6954 16.9777C51.3533 17.2284 52.0771 17.3538 52.8667 17.3538C53.9524 17.3538 54.9723 17.1031 55.8605 16.5702C56.7817 16.0374 57.5055 15.3165 58.0319 14.4076C58.5583 13.4986 58.8215 12.4956 58.8215 11.3673C58.8873 10.2703 58.6241 9.26729 58.0648 8.35834ZM54.4459 13.6553C53.8866 14.2508 53.1628 14.5643 52.3074 14.5643C51.452 14.5643 50.7283 14.2508 50.169 13.6553C49.6097 13.0598 49.3136 12.3076 49.3136 11.3673C49.3136 10.4583 49.6097 9.67475 50.169 9.07923C50.7283 8.48371 51.452 8.17028 52.3074 8.17028C53.1628 8.17028 53.8866 8.48371 54.4459 9.07923C55.0052 9.67475 55.3012 10.427 55.3012 11.3673C55.2683 12.3076 55.0052 13.0598 54.4459 13.6553Z" fill="#999999"/>
<path d="M11.1834 8.42102H4.76804V0.553894H0.589844V17.1344H4.76804V8.95386H11.1834V17.1344H15.3616V0.553894H11.1834V8.42102Z" fill="#999999"/>
<path d="M72.7729 5.63162H66.9826V6.10177C69.2856 6.28983 69.6804 8.04505 68.5618 10.4898L66.9826 14.0943L64.5481 9.42415C63.3308 7.04207 63.4953 6.25849 66.226 6.10177V5.60028H57.7051V6.07043C58.8894 6.13311 59.1197 6.82266 60.3041 9.14206L65.2061 18.3883C64.3507 20.1122 63.7585 20.6137 62.9689 20.6137C62.0149 20.6137 61.6201 19.736 61.6201 18.7331C61.6201 18.2316 61.7517 17.7301 61.9162 17.2286C59.7777 17.1032 58.5934 18.3256 58.5934 19.5166C58.5934 20.551 59.5145 21.5539 61.4556 21.5539C64.3178 21.5539 65.1403 19.7674 65.9957 17.7928L69.1211 10.5212C70.3383 7.66893 71.8517 6.44655 72.7729 6.07043V5.63162Z" fill="#999999"/>
</svg>
