<svg width="77" height="24" viewBox="0 0 77 24" fill="none" xmlns="http://www.w3.org/2000/svg">
<path d="M41.1141 16.3764C41.1141 18.6178 39.937 19.8266 37.8181 19.8266C36.9548 19.8266 36.327 19.5999 35.8823 19.1214H35.8561V22.0932C35.8561 22.3702 35.6992 22.5213 35.4114 22.5213H34.2343C33.9465 22.5213 33.7896 22.3702 33.7896 22.0932V13.8076C33.7896 11.5662 35.0975 10.3573 37.4518 10.3573C39.8062 10.3573 41.1403 11.5662 41.1403 13.8076C41.1141 13.8076 41.1141 16.3764 41.1141 16.3764ZM39.0476 13.9587C39.0476 12.6995 38.4982 12.0447 37.4257 12.0447C36.3532 12.0447 35.83 12.6743 35.83 13.9587V16.2253C35.83 17.4845 36.3532 18.1141 37.4257 18.1141C38.4982 18.1141 39.0476 17.4845 39.0476 16.2253V13.9587Z" fill="#999999"/>
<path d="M43.4687 6.70569C44.175 6.70569 44.6982 7.18419 44.6982 7.86416C44.6982 8.56932 44.2012 9.04782 43.4687 9.04782C42.7363 9.04782 42.2393 8.56932 42.2393 7.86416C42.2393 7.20937 42.7624 6.70569 43.4687 6.70569ZM42.8671 19.6C42.5793 19.6 42.4224 19.4489 42.4224 19.1719V10.987C42.4224 10.71 42.5793 10.5589 42.8671 10.5589H44.0442C44.332 10.5589 44.489 10.71 44.489 10.987V19.1719C44.489 19.4489 44.332 19.6 44.0442 19.6H42.8671Z" fill="#999999"/>
<path d="M53.0932 19.4236C53.0932 21.4888 51.7067 22.7228 49.4047 22.7228C48.1491 22.7228 47.1288 22.4206 46.3179 21.7658C46.1086 21.5895 46.0825 21.4132 46.2394 21.1865L46.7365 20.4562C46.8934 20.2044 47.1027 20.154 47.3381 20.3555C47.9136 20.7836 48.5938 20.9851 49.2739 20.9851C50.4511 20.9851 51.0266 20.431 51.0266 19.2977V18.7689H51.0004C50.5557 19.2474 49.9017 19.474 49.0646 19.474C46.9196 19.474 45.7686 18.2652 45.7686 16.0238V13.8076C45.7686 11.5662 47.0765 10.3573 49.457 10.3573C51.8114 10.3573 53.1193 11.5662 53.1193 13.8076L53.0932 19.4236ZM51.0266 15.8727V13.9587C51.0266 12.6995 50.5034 12.0447 49.4309 12.0447C48.3583 12.0447 47.809 12.6743 47.809 13.9587V15.8727C47.809 17.1319 48.3583 17.7615 49.4309 17.7615C50.5034 17.7615 51.0266 17.1319 51.0266 15.8727Z" fill="#999999"/>
<path d="M61.5965 16.4773C61.5965 18.6431 60.3408 19.8268 58.065 19.8268C55.7891 19.8268 54.5073 18.6431 54.5073 16.4773V10.9871C54.5073 10.7101 54.6643 10.559 54.952 10.559H56.1292C56.4169 10.559 56.5739 10.7101 56.5739 10.9871V16.3765C56.5739 17.5098 57.0709 18.1142 58.0911 18.1142C59.0852 18.1142 59.6084 17.535 59.6084 16.3765V10.9871C59.6084 10.7101 59.7653 10.559 60.0531 10.559H61.1779C61.4657 10.559 61.6226 10.7101 61.6226 10.9871L61.5965 16.4773Z" fill="#999999"/>
<path d="M62.8521 18.5675C62.8521 17.8623 63.4014 17.3335 64.16 17.3335C64.8925 17.3335 65.468 17.8623 65.468 18.5675C65.468 19.2978 64.8925 19.8267 64.16 19.8267C63.4014 19.8267 62.8521 19.2978 62.8521 18.5675Z" fill="#999999"/>
<path d="M67.3265 19.6007C67.0388 19.6007 66.8818 19.4496 66.8818 19.1726V7.31082C66.8818 7.0338 67.0388 6.88269 67.3265 6.88269H68.5037C68.7915 6.88269 68.9484 7.0338 68.9484 7.31082V19.1978C68.9484 19.4748 68.7915 19.6259 68.5037 19.6259L67.3265 19.6007Z" fill="#999999"/>
<path d="M76.1693 18.9956C76.2739 19.2475 76.1954 19.4237 75.9338 19.5497C75.5153 19.726 74.9921 19.8267 74.3381 19.8267C72.2192 19.8267 71.1728 18.8193 71.1728 16.7542V12.2714H70.3881C70.1003 12.2714 69.9434 12.1203 69.9434 11.8433V10.987C69.9434 10.71 70.1003 10.5589 70.3881 10.5589H71.1728V8.61972C71.1728 8.34269 71.3298 8.19159 71.6176 8.19159H72.7947C73.0825 8.19159 73.2394 8.34269 73.2394 8.61972V10.5589H75.5153C75.803 10.5589 75.96 10.71 75.96 10.987V11.8685C75.96 12.1455 75.803 12.2966 75.5153 12.2966H73.2394V16.7794C73.2394 17.686 73.6841 18.1394 74.5997 18.1394C74.8351 18.1394 75.0967 18.089 75.3845 17.9882C75.6722 17.8623 75.8554 17.9379 75.9338 18.1897L76.1693 18.9956Z" fill="#999999"/>
<path d="M28.3203 1.92045C28.2157 1.06419 27.4309 0.484954 26.5414 0.560507L23.376 0.93827C22.5912 1.03901 21.9895 1.66861 21.9633 2.39895C21.8064 6.07585 18.9026 9.19869 14.9785 9.67719C11.0806 10.1305 7.47046 7.76319 6.37172 4.26258C6.16243 3.53224 5.42994 3.05374 4.64513 3.15448L1.47972 3.53224C0.590262 3.65816 -0.0375882 4.41369 0.0670535 5.24477C0.0670535 5.29514 0.0932139 5.37069 0.0932139 5.42106C0.0932139 5.44624 0.0932139 5.44624 0.0932139 5.47143C1.89828 12.0949 8.54303 16.6028 15.7372 15.7466C22.9574 14.8903 28.268 8.97203 28.3203 2.14711C28.3203 2.12193 28.3203 2.12193 28.3203 2.09674C28.3203 2.04637 28.3203 1.97082 28.3203 1.92045Z" fill="#999999"/>
<path d="M25.5479 19.6503C25.5479 21.8161 23.7429 23.5538 21.4932 23.5538C19.2435 23.5538 17.4385 21.7909 17.4385 19.6503C17.4385 17.5096 19.2435 15.7467 21.4932 15.7467C23.7429 15.7467 25.5479 17.5096 25.5479 19.6503Z" fill="#999999"/>
<path d="M10.1905 18.7941C10.1905 20.4814 8.77789 21.8666 6.99905 21.8666C5.22022 21.8666 3.80762 20.4814 3.80762 18.7941C3.80762 17.1068 5.22022 15.7216 6.99905 15.7216C8.75173 15.7216 10.1905 17.1068 10.1905 18.7941Z" fill="#999999"/>
</svg>
